{
  "accessors": [
    {
      "bufferView": 2,
      "componentType": 5126,
      "count": 21565,
      "max": [
        7987.4765625,
        7668.83349609375,
        2593.039794921875
      ],
      "min": [
        -7350.1953125,
        -7668.83984375,
        -8100.4443359375
      ],
      "type": "VEC3"
    },
    {
      "bufferView": 2,
      "byteOffset": 258780,
      "componentType": 5126,
      "count": 21565,
      "max": [
        1,
        1,
        1
      ],
      "min": [
        -1,
        -1,
        -1
      ],
      "type": "VEC3"
    },
    {
      "bufferView": 3,
      "componentType": 5126,
      "count": 21565,
      "max": [
        1,
        1,
        1,
        1
      ],
      "min": [
        -1,
        -1,
        -1,
        -1
      ],
      "type": "VEC4"
    },
    {
      "bufferView": 1,
      "componentType": 5126,
      "count": 21565,
      "max": [
        1.03125,
        1
      ],
      "min": [
        -1.7881393432617188e-07,
        0
      ],
      "type": "VEC2"
    },
    {
      "bufferView": 0,
      "componentType": 5125,
      "count": 54594,
      "max": [
        21564
      ],
      "min": [
        0
      ],
      "type": "SCALAR"
    },
    {
      "bufferView": 2,
      "byteOffset": 517560,
      "componentType": 5126,
      "count": 21565,
      "max": [
        7987.4765625,
        7668.83349609375,
        2593.039794921875
      ],
      "min": [
        -7350.1953125,
        -7668.83984375,
        -8100.4443359375
      ],
      "type": "VEC3"
    },
    {
      "bufferView": 2,
      "byteOffset": 776340,
      "componentType": 5126,
      "count": 21565,
      "max": [
        1,
        1,
        1
      ],
      "min": [
        -1,
        -1,
        -1
      ],
      "type": "VEC3"
    },
    {
      "bufferView": 3,
      "byteOffset": 345040,
      "componentType": 5126,
      "count": 21565,
      "max": [
        1,
        1,
        1,
        1
      ],
      "min": [
        -1,
        -1,
        -1,
        -1
      ],
      "type": "VEC4"
    },
    {
      "bufferView": 1,
      "byteOffset": 172520,
      "componentType": 5126,
      "count": 21565,
      "max": [
        1.03125,
        1
      ],
      "min": [
        -1.7881393432617188e-07,
        0
      ],
      "type": "VEC2"
    },
    {
      "bufferView": 0,
      "byteOffset": 218376,
      "componentType": 5125,
      "count": 54594,
      "max": [
        21564
      ],
      "min": [
        0
      ],
      "type": "SCALAR"
    }
  ],
  "asset": {
    "extras": {
      "author": "Miguel Ángel Jiménez (https://sketchfab.com/mangel.jimenez)",
      "license": "CC-BY-4.0 (http://creativecommons.org/licenses/by/4.0/)",
      "source": "https://sketchfab.com/models/ffb3092cde0948a3a1fa0361b15558d2",
      "title": "Dual Wielding Tesla Energy Projector (FPS VIEW)"
    },
    "generator": "Sketchfab-3.19.6",
    "version": "2.0"
  },
  "bufferViews": [
    {
      "buffer": 0,
      "byteLength": 436752,
      "byteOffset": 0,
      "name": "floatBufferViews",
      "target": 34963
    },
    {
      "buffer": 0,
      "byteLength": 345040,
      "byteOffset": 436752,
      "byteStride": 8,
      "name": "floatBufferViews",
      "target": 34962
    },
    {
      "buffer": 0,
      "byteLength": 1035120,
      "byteOffset": 781792,
      "byteStride": 12,
      "name": "floatBufferViews",
      "target": 34962
    },
    {
      "buffer": 0,
      "byteLength": 690080,
      "byteOffset": 1816912,
      "byteStride": 16,
      "name": "floatBufferViews",
      "target": 34962
    }
  ],
  "buffers": [
    {
      "byteLength": 2506992,
      "uri": "scene.bin"
    }
  ],
  "images": [
    {
      "uri": "textures/01_-_Default_metallicRoughness.png"
    },
    {
      "uri": "textures/01_-_Default_normal.jpg"
    }
  ],
  "materials": [
    {
      "doubleSided": true,
      "emissiveFactor": [
        0.0054185263437500006,
        0.0028525852187500002,
        0.0033186980078124999
      ],
      "name": "01_-_Default",
      "normalTexture": {
        "index": 1,
        "scale": 1,
        "texCoord": 0
      },
      "occlusionTexture": {
        "index": 0,
        "strength": 1,
        "texCoord": 0
      },
      "pbrMetallicRoughness": {
        "baseColorFactor": [
          0.035165032300000003,
          0.29160434140000002,
          0.74943454239999996,
          1
        ],
        "metallicFactor": 1,
        "metallicRoughnessTexture": {
          "index": 0,
          "texCoord": 0
        },
        "roughnessFactor": 1
      }
    }
  ],
  "meshes": [
    {
      "name": "rocket_01 - Default_0",
      "primitives": [
        {
          "attributes": {
            "NORMAL": 1,
            "POSITION": 0,
            "TANGENT": 2,
            "TEXCOORD_0": 3
          },
          "indices": 4,
          "material": 0,
          "mode": 4
        }
      ]
    },
    {
      "name": "rocket001_01 - Default_0",
      "primitives": [
        {
          "attributes": {
            "NORMAL": 6,
            "POSITION": 5,
            "TANGENT": 7,
            "TEXCOORD_0": 8
          },
          "indices": 9,
          "material": 0,
          "mode": 4
        }
      ]
    }
  ],
  "nodes": [
    {
      "children": [
        1
      ],
      "name": "RootNode (gltf orientation matrix)",
      "rotation": [
        -0.70710678118654746,
        -0,
        -0,
        0.70710678118654757
      ]
    },
    {
      "children": [
        2
      ],
      "matrix": [
        0.99984109401702881,
        0.00014334720617625862,
        -0.017826048657298088,
        0,
        -0.0012704399414360523,
        0.99799805879592896,
        -0.063232064247131348,
        0,
        0.017781296744942665,
        0.063244663178920746,
        0.99783962965011597,
        0,
        -0.057221800088882446,
        -0.089210934937000275,
        -2.8721873760223389,
        1
      ],
      "name": "RootNode (model correction matrix)"
    },
    {
      "children": [
        3
      ],
      "matrix": [
        1,
        0,
        0,
        0,
        0,
        0,
        1,
        0,
        0,
        -1,
        0,
        0,
        0,
        0,
        0,
        1
      ],
      "name": "025f6cde647147d483cbd7d16196b43f.fbx"
    },
    {
      "children": [
        4,
        6
      ],
      "name": "RootNode"
    },
    {
      "children": [
        5
      ],
      "matrix": [
        -0.0010028945980593562,
        -0,
        -0,
        -0,
        -0,
        -0.0010300602298229796,
        -1.6781812013115077e-10,
        -0,
        -0,
        1.3883300056061584e-09,
        -0.0085215084254740541,
        -0,
        17.5635986328125,
        -0.036210149526596069,
        22.182491302490234,
        1
      ],
      "name": "rocket"
    },
    {
      "mesh": 0,
      "name": "rocket_01 - Default_0"
    },
    {
      "children": [
        7
      ],
      "matrix": [
        -0.0010028945980593562,
        -0,
        -0,
        -0,
        -0,
        -0.0010300602298229796,
        -1.6781812013115077e-10,
        -0,
        -0,
        1.3883300056061584e-09,
        -0.0085215084254740541,
        -0,
        -15.317197799682617,
        -0.036210149526596069,
        22.182491302490234,
        1
      ],
      "name": "rocket001"
    },
    {
      "mesh": 1,
      "name": "rocket001_01 - Default_0"
    }
  ],
  "samplers": [
    {
      "magFilter": 9729,
      "minFilter": 9987,
      "wrapS": 10497,
      "wrapT": 10497
    }
  ],
  "scene": 0,
  "scenes": [
    {
      "name": "OSG_Scene",
      "nodes": [
        0
      ]
    }
  ],
  "textures": [
    {
      "sampler": 0,
      "source": 0
    },
    {
      "sampler": 0,
      "source": 1
    }
  ]
}

